<svg xmlns="http://www.w3.org/2000/svg" viewBox="0 0 1000 990"><mask id="mask"><path d="M1000,0H0V718.31H179.2c38.38,142.38,167.45,247.1,320.8,247.1s282.42-104.72,320.8-247.1H1000Z" fill="white"></path></mask><g mask="url(#mask)"><circle cx="500" cy="630.1601" r="332.441995" fill="#85c5e5"></circle><path d="M610,758.72c90.76,0,72,114.24,72.87,241.28H610Z" fill="#D8985D"></path><path d="M632.74,831.87,610,870l11.38,130h31.76C653.91,819.73,632.74,831.87,632.74,831.87Z" fill="#C6854E"></path><path d="M233.25,500c0-147.32,119.43-266.75,266.75-266.75S766.75,352.68,766.75,500A266.22,266.22,0,0,1,668.1,707.12q-8.21,6.68-16.94,12.69C591,758,515,758,446.39,751.89c-6.66-1-13.3-2.26-19.89-3.71-26.33-5.8-51.82-14.75-75.37-27.8Q342.4,715,334.2,708.76a199.59,199.59,0,0,1-15.8-13.38q-7.14-6.63-13.79-13.78A265.86,265.86,0,0,1,233.25,500Z" fill="#D8985D"></path><path d="M269.61,634.48c.7,1.2,1.39,2.4,2.11,3.58.43.72.88,1.42,1.33,2.14.66,1.07,1.32,2.14,2,3.19.48.76,1,1.5,1.46,2.24.66,1,1.32,2,2,3,.51.76,1,1.52,1.56,2.28.66,1,1.32,1.92,2,2.88.54.77,1.1,1.53,1.65,2.3s1.34,1.85,2,2.77,1.15,1.53,1.73,2.29,1.37,1.8,2.07,2.7,1.19,1.51,1.79,2.26,1.41,1.76,2.12,2.63,1.23,1.49,1.85,2.23,1.44,1.72,2.17,2.57,1.27,1.47,1.91,2.2l2.22,2.5c.65.73,1.31,1.44,2,2.16.86.94,1.73,1.87,2.6,2.79l1.21,1.28c1.29,1.34,2.59,2.68,3.91,4l.26.27c1.29,1.28,2.6,2.55,3.91,3.81l1.58,1.5c.95.89,1.9,1.78,2.86,2.66l1.16,1.06c1,.94,2.09,1.86,3.14,2.78q4.9,4.27,10,8.19,8.19,6.24,16.93,11.62c23.55,13,49,22,75.37,27.8,6.59,1.45,13.23,2.7,19.89,3.71,42.1,3.75,87,5.18,129.28-3.08C508.45,729,185.59,612.74,388.8,257.48h0c-2.72,1.25-5.4,2.54-8.06,3.88l-.59.29c-1.22.61-2.44,1.24-3.65,1.88l-1,.53c-3.76,2-7.48,4.07-11.13,6.23l-.9.53c-1.16.69-2.31,1.39-3.46,2.1l-.87.54q-5.36,3.35-10.55,6.93l-1.08.75c-1.09.76-2.16,1.52-3.23,2.29l-.66.47q-3.27,2.39-6.46,4.84l-.62.48c-1,.78-2,1.58-3,2.39l-1.17.94c-1,.81-2,1.62-3,2.45l0,0c-2.11,1.75-4.19,3.55-6.24,5.37l-1.14,1-2.69,2.45L318,305q-4.28,4-8.37,8.17l-1.38,1.41c-.79.82-1.58,1.64-2.36,2.47-.46.49-.92,1-1.37,1.48q-2.06,2.2-4.06,4.46c-.45.51-.91,1-1.36,1.54-.71.81-1.41,1.63-2.11,2.45l-1.51,1.79c-.68.81-1.36,1.62-2,2.44-.54.66-1.08,1.33-1.61,2-1.07,1.33-2.12,2.66-3.16,4-.54.7-1.08,1.4-1.61,2.11s-1.2,1.59-1.79,2.4-1.07,1.45-1.59,2.18-1.13,1.55-1.68,2.33q-1.42,2-2.8,4.05c-.5.73-1,1.48-1.49,2.22s-1.1,1.66-1.64,2.5l-1.49,2.31-1.68,2.71c-.43.69-.86,1.38-1.28,2.07-.89,1.46-1.75,2.93-2.61,4.4l-1.22,2.16c-.54.95-1.08,1.91-1.61,2.87-.4.73-.8,1.46-1.19,2.19-.64,1.19-1.27,2.39-1.9,3.59l-1.2,2.34c-.64,1.28-1.28,2.55-1.91,3.84-.33.69-.67,1.39-1,2.09-.52,1.09-1,2.19-1.53,3.29-.31.66-.61,1.32-.91,2q-1.11,2.47-2.17,5c-.22.52-.43,1.05-.65,1.57-.53,1.27-1.05,2.54-1.56,3.82-.27.67-.53,1.34-.79,2-.5,1.26-1,2.53-1.45,3.8-.21.55-.42,1.1-.62,1.65q-.94,2.63-1.85,5.26l-.56,1.7q-.66,2-1.29,4l-.6,1.91c-.47,1.54-.93,3.08-1.37,4.63-.1.33-.2.66-.29,1q-.78,2.76-1.5,5.54c-.16.59-.3,1.19-.45,1.78-.35,1.39-.69,2.78-1,4.18l-.42,1.75c-.43,1.9-.85,3.8-1.24,5.71l-.15.77q-.51,2.55-1,5.1c-.11.61-.21,1.21-.32,1.82-.26,1.49-.51,3-.74,4.5-.08.51-.17,1-.24,1.52-.3,1.95-.57,3.91-.83,5.88l-.15,1.3c-.2,1.59-.38,3.19-.55,4.79-.06.6-.13,1.2-.19,1.81-.16,1.68-.31,3.37-.45,5.06,0,.35-.06.69-.08,1q-.22,3-.39,6.05c0,.53,0,1.07-.07,1.6q-.1,2.36-.18,4.71c0,.59,0,1.18,0,1.77,0,2.05-.08,4.11-.08,6.17,0,0,0,.07,0,.1,0,2.22,0,4.42.08,6.62,0,.76.06,1.52.08,2.28.05,1.47.1,2.94.17,4.41,0,.89.11,1.77.16,2.66.08,1.33.15,2.66.25,4,.07,1,.16,1.89.24,2.83.11,1.26.21,2.52.34,3.77.09,1,.21,1.94.31,2.91.14,1.21.27,2.43.42,3.64.12,1,.26,2,.39,2.95.16,1.18.32,2.37.5,3.55.15,1,.31,2,.47,3,.18,1.16.37,2.33.57,3.49.18,1,.36,2,.55,3,.21,1.15.43,2.3.65,3.44s.41,2,.62,3c.24,1.14.48,2.27.74,3.4s.44,2,.68,2.93c.26,1.13.54,2.25.82,3.36s.49,1.95.74,2.91c.3,1.12.6,2.23.91,3.34.26,1,.53,1.92.81,2.87.32,1.11.65,2.21,1,3.31s.58,1.89.88,2.84.7,2.19,1.06,3.28.62,1.87.94,2.8c.38,1.09.76,2.18,1.15,3.27.33.91.65,1.83,1,2.74l1.24,3.27c.35.89.69,1.79,1,2.68.44,1.09.89,2.19,1.34,3.28.36.86.71,1.73,1.08,2.59.47,1.12,1,2.22,1.45,3.33.37.82.73,1.65,1.1,2.47.52,1.16,1.07,2.3,1.6,3.44l1.08,2.3c.61,1.26,1.24,2.5,1.87,3.75.32.63.62,1.27.95,1.9q2.88,5.61,6,11.07C268.88,633.26,269.25,633.87,269.61,634.48Z" fill="#C6854E"></path><path d="M233.25,500c0-147.32,119.43-266.75,266.75-266.75S766.75,352.68,766.75,500A266.22,266.22,0,0,1,668.1,707.12q-8.21,6.68-16.94,12.69C591,758,515,758,446.39,751.89c-6.66-1-13.3-2.26-19.89-3.71-26.33-5.8-51.82-14.75-75.37-27.8Q342.4,715,334.2,708.76a199.59,199.59,0,0,1-15.8-13.38q-7.14-6.63-13.79-13.78A265.86,265.86,0,0,1,233.25,500Z" fill="none" stroke="#592d3d" stroke-miterlimit="10" stroke-width="12px"></path><path d="M386.12,758.72c-90.77,0-72,114.24-72.87,241.28h72.87Z" fill="#D8985D"></path><path d="M367.23,831.87,390,870l-11.39,130H346.88C346.07,819.73,367.23,831.87,367.23,831.87Z" fill="#C6854E"></path><path d="M619.47,1070H380.53a13.28,13.28,0,0,1-13.27-13.28V772a13.28,13.28,0,0,1,13.27-13.28H613.76c13.09,0,19,7.66,19,19.88v278.08A13.28,13.28,0,0,1,619.47,1070Z" fill="#D8985D"></path><path d="M629.05,766.62a19.33,19.33,0,0,1-2.51-4,17.25,17.25,0,0,0-8.28-3.51,28.88,28.88,0,0,0-4.5-.34H380.53A13.28,13.28,0,0,0,367.26,772c29,10.42,83.29,16.24,132.74,16.24C563.06,788.24,604.38,778.89,629.05,766.62Z" fill="#C6854E"></path><path d="M610,758.72c90.76,0,72,114.24,72.87,241.28H632.74" fill="none" stroke="#592d3d" stroke-linecap="square" stroke-miterlimit="10" stroke-width="12px"></path><path d="M386.12,758.72c-90.77,0-72,114.24-72.87,241.28h50.07" fill="none" stroke="#592d3d" stroke-linecap="square" stroke-miterlimit="10" stroke-width="12px"></path><path d="M380.53,758.82l233.23-.1" fill="none" stroke="#592d3d" stroke-miterlimit="10" stroke-width="12px"></path><path d="M380.53,1070H497.15C388,1070,396.24,838.82,367.26,838.82v217.86A13.28,13.28,0,0,0,380.53,1070Z" fill="#C6854E"></path><path d="M361.26,860.85c-.19-3.67-.11-7.34.05-11s.47-7.35.86-11c.2-1.84.4-3.67.65-5.51s.49-3.67.85-5.51a44.18,44.18,0,0,1,3.59-11,44.18,44.18,0,0,1,3.59,11c.36,1.84.62,3.67.85,5.51s.45,3.67.65,5.51c.38,3.67.68,7.34.85,11s.25,7.34.06,11Z" fill="#592d3d"></path><path d="M632.74,870v8c.26,34,.26,69,0,102.75,0,2.87,0,5.72,0,8.53v67.41A13.28,13.28,0,0,1,619.47,1070H380.53a13.28,13.28,0,0,1-13.27-13.28V998.52c0-2.51,0-5.07,0-7.65-.25-34.87-.25-69.87,0-105.3V860.85" fill="none" stroke="#592d3d" stroke-miterlimit="10" stroke-width="12px"></path><path d="M626.74,870c-.19-4.17-.1-8.35.06-12.53s.47-8.35.85-12.53c.2-2.09.41-4.18.65-6.27s.49-4.17.85-6.26a55.09,55.09,0,0,1,3.59-12.53,55.09,55.09,0,0,1,3.59,12.53c.36,2.09.62,4.18.85,6.26s.45,4.18.65,6.27c.38,4.18.69,8.35.85,12.53s.25,8.36.06,12.53Z" fill="#592d3d"></path><path d="M570.68,842.45C570.9,833,582.9,829,588.9,835a10.61,10.61,0,1,1-15.16,14.85A10.4,10.4,0,0,1,570.68,842.45Z" fill="#592d3d"></path><path d="M408.11,842.15C407.9,834,416.9,830,422.9,833c8,3,8,14,0,19-4,2-8,0-11.75-2.48A10.39,10.39,0,0,1,408.11,842.15Z" fill="#592d3d"></path><path d="M500,831.77a27.13,27.13,0,0,1,1.5,5.84,42.47,42.47,0,0,1,.49,5.84l.3,11.69c.09,3.89.21,7.79.25,11.69l.17,11.67c.23,15.57.22,31.16.28,46.74s.18,31.16,0,46.74c-.09,7.79-.3,15.58-.53,23.37-.1,3.89-.29,7.79-.67,11.68a92.5,92.5,0,0,1-1.77,11.69,92.5,92.5,0,0,1-1.77-11.69c-.38-3.89-.57-7.79-.67-11.68-.23-7.79-.44-15.58-.53-23.37-.2-15.58,0-31.16,0-46.74s0-31.15.18-46.73l.17-11.7.33-11.68.33-11.68a44.11,44.11,0,0,1,.5-5.84A27.13,27.13,0,0,1,500,831.77Z" fill="#C6854E"></path><path d="M425.22,883a18.51,18.51,0,0,1,4.67-1.5,29.75,29.75,0,0,1,4.68-.5l9.35-.33,18.7-.41c12.46-.19,24.91-.24,37.38-.27s24.93-.16,37.39,0c6.23.09,12.46.3,18.7.53,3.11.11,6.23.3,9.34.67a61.34,61.34,0,0,1,9.35,1.78,59.17,59.17,0,0,1-9.35,1.77c-3.11.38-6.23.57-9.34.67-6.24.23-12.47.43-18.7.52-12.46.19-24.92,0-37.39,0s-24.93,0-37.4-.15c-6.23-.06-12.46-.26-18.68-.5l-9.35-.34a29.5,29.5,0,0,1-4.67-.5A18.45,18.45,0,0,1,425.22,883Z" fill="#C6854E"></path><path d="M442.41,914.38a12.51,12.51,0,0,1,3.74-1.11,18.35,18.35,0,0,1,3.62-.15c2.39.1,4.78.16,7.17.21,4.78.11,9.56.15,14.34.17,9.63,0,19.09.08,28.76-.21s19.26-.43,28.88-.39c4.81,0,9.62.13,14.42.24a70.37,70.37,0,0,1,7.23.47,38.17,38.17,0,0,1,7.27,1.53,36.56,36.56,0,0,1-7.16,2,61.08,61.08,0,0,1-7.21.86c-4.82.35-9.64.65-14.45.82-9.64.36-19.27.32-28.88.45-4.81,0-9.61.22-14.48.1s-9.69-.13-14.52-.31-9.68-.58-14.5-1.08c-2.42-.27-4.82-.57-7.23-.9a16.82,16.82,0,0,1-3.57-.84A11.51,11.51,0,0,1,442.41,914.38Z" fill="#C6854E"></path><path d="M438.93,949.87a13.07,13.07,0,0,1,3.82-1.5,19.13,19.13,0,0,1,3.82-.49l7.63-.32c5.09-.18,10.19-.33,15.28-.41C479.66,947,489.84,947,500,947s20.36-.17,30.54,0c5.09.09,10.18.3,15.27.53a72.73,72.73,0,0,1,7.63.66A41.2,41.2,0,0,1,561.1,950a41.25,41.25,0,0,1-7.63,1.77,70.34,70.34,0,0,1-7.64.67c-5.09.23-10.18.44-15.27.53-10.18.2-20.37.06-30.55,0s-20.36-.06-30.54-.25c-5.09-.1-10.19-.28-15.28-.49l-7.63-.37a19.33,19.33,0,0,1-3.82-.5A12.85,12.85,0,0,1,438.93,949.87Z" fill="#C6854E"></path><path d="M664.05,702.32c28.31-23,54.41-54.72,70.68-86.1-.06-.1-3.49,3.38-3.55,3.28S710.11,638.28,649.66,638c-76.3-.31-60.54-21.68-152.51-21.68-81.42,0-68.49,11.89-145.15,16.15-62.09,3.45-83.62-13-83.62-13l-.2.33a261.18,261.18,0,0,0,40.56,57.53c4.32,4.65,8.86,9.18,13.48,13.48a193.3,193.3,0,0,0,15.35,13c5.18,3.95,10.67,7.72,16.33,11.21,21.71,12,46.48,21.14,73.63,27.13,6.49,1.43,13,2.64,19.31,3.6,65.81,5.85,141.08,6.7,200.74-31.12C653.21,710.78,658.75,706.63,664.05,702.32Z" opacity="0.15"></path><circle cx="311.51" cy="659.14" r="4.18" fill="#592d3d"></circle><circle cx="338.51" cy="663.32" r="2.96" fill="#592d3d"></circle><circle cx="401.05" cy="707.98" r="2.96" fill="#592d3d"></circle><circle cx="506.83" cy="711.31" r="2.96" fill="#592d3d"></circle><circle cx="517.63" cy="704.5" r="2.96" fill="#592d3d"></circle><circle cx="578.33" cy="701.54" r="2.96" fill="#592d3d"></circle><circle cx="581.29" cy="683.15" r="2.96" fill="#592d3d"></circle><circle cx="391.69" cy="690.72" r="5.37" fill="#592d3d"></circle><circle cx="600.44" cy="707.45" r="2.09" fill="#592d3d"></circle><circle cx="642.96" cy="696.08" r="4.18" fill="#592d3d"></circle><circle cx="462.56" cy="724.04" r="4.18" fill="#592d3d"></circle><circle cx="642.96" cy="663.22" r="2.96" fill="#592d3d"></circle><circle cx="654.05" cy="673.06" r="2.96" fill="#592d3d"></circle><circle cx="341.06" cy="569.08" r="20.96" fill="#592d3d"></circle><path d="M340.93,586c1.79-.1,3.79-.26,5.7-.46s3.86-.44,5.79-.74,3.87-.65,5.81-1,3.92-.68,6-.83a24.74,24.74,0,0,1-5.31,3.12,48.86,48.86,0,0,1-5.78,2,50.61,50.61,0,0,1-6,1.36,36.13,36.13,0,0,1-6.24.54Z" fill="#592d3d"></path><circle cx="661.77" cy="569.08" r="20.96" fill="#592d3d"></circle><path d="M661.77,586c1.8-.1,3.79-.26,5.7-.46s3.87-.44,5.8-.74,3.87-.65,5.81-1,3.92-.68,6-.83a25,25,0,0,1-5.31,3.12,48.86,48.86,0,0,1-5.78,2,51.06,51.06,0,0,1-6,1.36,36.22,36.22,0,0,1-6.24.54Z" fill="#592d3d"></path><path d="M463.75,593.17c15.55,0,25.12,12.76,36.49,12.76s25.91-12.76,41.27-12.76,23.72,11.12,23.72,26.52c0,16.65-16.75,46-62.6,46s-65.4-27.74-65.4-45.45C437.23,603.89,448.2,593.17,463.75,593.17Z" fill="#ffffff" stroke="#592d3d" stroke-miterlimit="10" stroke-width="12px"></path><line x1="477.85" y1="596.6" x2="477.85" y2="662.1" fill="none" stroke="#592d3d" stroke-miterlimit="10" stroke-width="12px"></line><line x1="526.99" y1="596.6" x2="526.99" y2="662.1" fill="none" stroke="#592d3d" stroke-miterlimit="10" stroke-width="12px"></line><path d="M558.73,399.34c-12.86,24-60,37.44-63.83,31.42-4.29-6.73,37.85-55.32,13.9-106.14" fill="#C6854E"></path><path d="M784,342.85c-5.1-5.1-31.06,1.83-57.19-.23A281,281,0,0,0,505.63,228.28c-2.44-20.48-.75-37.68-2.61-40.1-2.49-3.22-15.49,12.68-18.87,31-11.91-15-32.14-23-32.72-18.8-.38,2.68,7.44,14.09,14.81,29.9-111.6,13.47-203.08,92.26-235.08,197-13.86,11.92-26.86,20.34-27,25.69-.27,9.92,39.31,9.36,56.58,7.82v-.06c60.65-2,179-13.78,236.42-72.89C491.64,406.93,481.47,421,483.43,424c3,4.67,38.32-5.19,50.07-23.24,48,19.59,139.49,43.16,219-16.16l-.22-.43C766.77,372.06,790.35,349.25,784,342.85Z" fill="#85c5e5"></path><path d="M726.85,348.62c-5.4.24-10.66.11-16-.14s-10.59-.67-15.87-1.26c-2.64-.29-5.28-.6-7.91-1s-5.27-.72-7.89-1.23a76.91,76.91,0,0,1-15.58-4.54,91.87,91.87,0,0,1,16-2.62c2.63-.22,5.26-.37,7.89-.48l7.88-.34c5.25-.22,10.49-.34,15.72-.45s10.48-.12,15.62,0Z" fill="#592d3d"></path><path d="M236.6,430s0,.24,0,.39l-.12.53-.28,1.11c-.21.75-.43,1.52-.66,2.29-.47,1.55-1,3.14-1.54,4.75s-1.06,3.28-1.77,5a20.6,20.6,0,0,1-1.38,2.6,17.91,17.91,0,0,1-2.07,2.77,13.14,13.14,0,0,1-3.72-5.47,16.11,16.11,0,0,1-.76-2.9c-.21-1-.31-2-.43-2.95a30,30,0,0,1,0-6,24.44,24.44,0,0,1,.48-3c.12-.5.25-1,.41-1.51a7.84,7.84,0,0,1,.27-.77c.1-.28.18-.48.36-.9Z" fill="#592d3d"></path><path d="M260.74,460.82v-.06c17-.56,38.63-1.9,62.14-4.84,2.63-55.92,22-121.58,65.92-198.44h0L382,254.23A282.15,282.15,0,0,0,231.16,427.31c-13.86,11.92-26.86,20.34-27,25.69C203.89,462.92,243.47,462.36,260.74,460.82Z" fill="#67B7D6"></path><path d="M784,342.85c-5.1-5.1-31.06,1.83-57.19-.23A281,281,0,0,0,505.63,228.28c-2.44-20.48-.75-37.68-2.61-40.1-2.49-3.22-15.49,12.68-18.87,31-11.91-15-32.14-23-32.72-18.8-.38,2.68,7.44,14.09,14.81,29.9-111.6,13.47-203.08,92.26-235.08,197-13.86,11.92-26.86,20.34-27,25.69-.27,9.92,39.31,9.36,56.58,7.82v-.06c60.65-2,179-13.78,236.42-72.89C491.64,406.93,481.47,421,483.43,424c3,4.67,38.32-5.19,50.07-23.24,48,19.59,139.49,43.16,219-16.16l-.22-.43C766.77,372.06,790.35,349.25,784,342.85Z" fill="none" stroke="#592d3d" stroke-miterlimit="10" stroke-width="12px"></path><path d="M505.93,244.31a367.42,367.42,0,0,0-42.48,4.94c-3.48.67-6.95,1.41-10.44,2.05s-6.9,1.61-10.35,2.41l-10.26,2.72c-3.4,1-6.77,2.08-10.15,3.12a314.12,314.12,0,0,0-39.43,15.73,348.31,348.31,0,0,0-37.25,21,183.85,183.85,0,0,1,35.08-25.14,219.23,219.23,0,0,1,39.76-17.29c3.48-1,6.94-2.09,10.42-3.05s7-1.82,10.55-2.6,7.1-1.4,10.66-2,7.15-1.07,10.73-1.52A190,190,0,0,1,505.93,244.31Z" fill="#ffffff"></path><path d="M600.89,460.57a318.14,318.14,0,0,1,33.51-6.65l-2.66.35c13.18-1.74,26.54-2.25,39.75-.48l-2.66-.36c3.27.46,6.54,1,9.82,1.42l-2.66-.36a221,221,0,0,1,29.48,6.11c5,1.39,11.1-1.73,12.3-7a10.19,10.19,0,0,0-7-12.3,239.21,239.21,0,0,0-34.59-6.78l2.66.36a143,143,0,0,0-33.44-1.95,235.08,235.08,0,0,0-33.09,4.55c-5.62,1.13-11.2,2.43-16.76,3.8-5.08,1.25-8.62,7.26-7,12.3a10.19,10.19,0,0,0,12.3,7Z" fill="#592d3d"></path><path d="M286.14,460.6a202.56,202.56,0,0,1,29.25-6.19l-2.66.36a195.53,195.53,0,0,1,51.38.08l-2.66-.35a218.94,218.94,0,0,1,29.45,6.1c5,1.4,11.1-1.73,12.3-7a10.19,10.19,0,0,0-7-12.3A227.26,227.26,0,0,0,352,433.6a208.27,208.27,0,0,0-71.22,7.71,10.39,10.39,0,0,0-6,4.6,10.2,10.2,0,0,0-1,7.7c1.65,5.11,6.91,8.54,12.3,7Z" fill="#592d3d"></path><circle cx="382.91" cy="594.66" r="33.84" fill="#ffffff" opacity="0.2"></circle><path d="M375.87,631l43.31-41.74a147.47,147.47,0,0,0-7.57-12.9l-45.87,44.21C367.64,621.9,373.72,630.08,375.87,631Z" fill="#ffffff" opacity="0.4"></path><circle cx="382.91" cy="594.66" r="33.84" fill="none" stroke="#592d3d" stroke-miterlimit="10" stroke-width="12px"></circle><path d="M378,580.47c1.22,3.83-3.5,6.78-7,7.37-3.54,0-5.9-2.36-7.08-5.31-.59-2.95,0-5.9,2.36-7.67,2.95-1.18,7.08-2.36,9.7.67A6.85,6.85,0,0,1,378,580.47Z" fill="#ffffff"></path><path d="M384.32,578.21a2.29,2.29,0,0,1-4.49.19c0-1.77.59-2.36,2.27-2.42a2.22,2.22,0,0,1,2.22,2.22Z" fill="#ffffff"></path><circle cx="615.2" cy="594.66" r="33.84" fill="#ffffff" opacity="0.2"></circle><path d="M610.12,628.11l38.54-38.54c-.21-1.37-5.91-8.1-6.29-9.44l-41.72,41.74C602,622.24,608.75,627.91,610.12,628.11Z" fill="#ffffff" opacity="0.4"></path><circle cx="615.2" cy="594.66" r="33.84" fill="none" stroke="#592d3d" stroke-miterlimit="10" stroke-width="12px"></circle><path d="M607.36,579.91c1,3.25-3,5.75-6,6.25-3,0-5-2-6-4.5-.5-2.5,0-5,2-6.5,2.5-1,6-2,8.23.57A5.85,5.85,0,0,1,607.36,579.91Z" fill="#ffffff"></path><path d="M612.7,578a1.94,1.94,0,0,1-3.8.16c0-1.5.5-2,1.92-2A1.88,1.88,0,0,1,612.7,578Z" fill="#ffffff"></path><path d="M416.74,594.66q83.68-30,164.63,0" fill="none" stroke="#592d3d" stroke-miterlimit="10" stroke-width="12px"></path><path d="M615.2,634.5A39.9,39.9,0,0,1,575.6,599c-50-17.65-101.46-17.64-153.1,0a39.81,39.81,0,0,1-50.92,33.84,38,38,0,0,0,54.51-29.91c49.22-16.86,98.28-16.88,145.93,0a38,38,0,0,0,54.51,30A40,40,0,0,1,615.2,634.5Z" opacity="0.15"></path></g></svg>